<?xml version="1.0" encoding="utf-8"?>
<!-- Generator: Adobe Illustrator 19.0.0, SVG Export Plug-In . SVG Version: 6.00 Build 0)  -->
<svg version="1.1" id="Camada_1" xmlns="http://www.w3.org/2000/svg" xmlns:xlink="http://www.w3.org/1999/xlink" x="0px" y="0px"
	 viewBox="113 247.3 125.1 157.5" style="enable-background:new 113 247.3 125.1 157.5;" xml:space="preserve">
<style type="text/css">
	.st0{fill:#FFFFFF;}
</style>
<title>Logo</title>
<path class="st0" d="M238.1,277.4v-24.9c0-2.7-1.5-4.2-4.2-4.2h-14c-6.5-0.2-12.7,2.2-17.4,6.7c-8.3-5.1-19.7-7.7-34-7.7
	c-14.7,0-26.3,3.6-34.5,10.6c-8,6.7-12.5,16.6-12.2,27c0.1,10.8,2.8,19.3,8.1,25.2c1.3,1.5,1.4,2.2,1.3,2.6c0,0.1-0.1,0.5-0.7,0.8
	c-8,3.5-12.1,8.3-12.1,14.3c-0.1,3.5,1.3,6.8,3.7,9.3c1.7,2.1,4,3.7,6.5,4.7c2,0.7,2.1,1.2,2.1,1.2s0,0.5-1,0.9
	c-5.1,2.5-9.5,6.5-12.4,11.4c-2.8,4.5-4.3,9.7-4.3,15c0,4.9,1,9.7,3.1,14.1c6.6,13.6,24.8,20.4,54.1,20.4c8.9,0.1,17.7-0.7,26.4-2.6
	c20.6-4.7,31-15.4,30.8-31.9c0-4.9-1-9.7-3.1-14.1c-6.6-13.6-24.8-20.4-54.1-20.4h-27c-10.8,0-16.3-2.5-16.3-7.4
	c-0.2-2.6,1.1-5.1,3.3-6.5c2.9-1.8,6.1-3.1,9.4-3.9c7.3,4.5,18.3,6.8,32.6,6.8c14.6,0,26.1-3.6,34.3-10.6
	c7.9-6.6,12.5-16.4,12.3-26.7c0-10.6-2.8-19.3-8.5-25.9l-0.1-0.1c-0.4-0.3-0.7-0.8-0.8-1.4c0.1-0.7,0.4-1.3,0.9-1.8
	c3-1.6,6.2-2.5,9.6-2.6h7.6c1.6,0,2.2,0.6,2.2,2.2v19.5c0,2.7,1.5,4.2,4.2,4.2S238.1,280.1,238.1,277.4z M210.2,286.2
	c0,9.4-3.1,16.8-9.3,22.2c-6.2,5.4-16.6,8.1-30.8,8.1s-24.6-2.7-30.8-8.1c-6.2-5.4-9.3-12.8-9.3-22.2c0-9.4,3.1-16.9,9.3-22.3
	c6.2-5.4,16.5-8.2,30.8-8.2c14.3,0,24.6,2.7,30.8,8.2S210.2,276.8,210.2,286.2z M121.4,370.4c0-17.3,16.4-26,48.7-26
	s48.7,8.8,48.7,26.1c0.1,3.5-0.6,7-2.3,10.1c-5.3,10.5-20.9,15.9-46.4,15.9C137.8,396.4,121.4,387.6,121.4,370.4z"/>
</svg>
