<svg xmlns="http://www.w3.org/2000/svg" viewBox="0 0 837.2 365.3"><defs><style>.cls-1{fill:#fff;}</style></defs><title>Logo</title><g id="Camada_2" data-name="Camada 2"><g id="Camada_1-2" data-name="Camada 1"><path class="cls-1" d="M125.1,62.7V37.8c0-2.7-1.5-4.2-4.2-4.2h-14a24.15,24.15,0,0,0-17.4,6.7c-8.3-5.1-19.7-7.7-34-7.7-14.7,0-26.3,3.6-34.5,10.6a33.9,33.9,0,0,0-12.2,27c.1,10.8,2.8,19.3,8.1,25.2,1.3,1.5,1.4,2.2,1.3,2.6,0,.1-.1.5-.7.8-8,3.5-12.1,8.3-12.1,14.3a12.82,12.82,0,0,0,3.7,9.3,16.35,16.35,0,0,0,6.5,4.7c2,.7,2.1,1.2,2.1,1.2s0,.5-1,.9A29.76,29.76,0,0,0,4.3,140.6a29.06,29.06,0,0,0-4.3,15,32.43,32.43,0,0,0,3.1,14.1c6.6,13.6,24.8,20.4,54.1,20.4a118.38,118.38,0,0,0,26.4-2.6c20.6-4.7,31-15.4,30.8-31.9a32.43,32.43,0,0,0-3.1-14.1c-6.6-13.6-24.8-20.4-54.1-20.4h-27c-10.8,0-16.3-2.5-16.3-7.4a7.09,7.09,0,0,1,3.3-6.5,35,35,0,0,1,9.4-3.9c7.3,4.5,18.3,6.8,32.6,6.8,14.6,0,26.1-3.6,34.3-10.6a34,34,0,0,0,12.3-26.7c0-10.6-2.8-19.3-8.5-25.9l-.1-.1a2.05,2.05,0,0,1-.8-1.4,3,3,0,0,1,.9-1.8,22.73,22.73,0,0,1,9.6-2.6h7.6c1.6,0,2.2.6,2.2,2.2V62.7c0,2.7,1.5,4.2,4.2,4.2S125.1,65.4,125.1,62.7ZM97.2,71.5q0,14.1-9.3,22.2c-6.2,5.4-16.6,8.1-30.8,8.1s-24.6-2.7-30.8-8.1S17,80.9,17,71.5s3.1-16.9,9.3-22.3S42.8,41,57.1,41s24.6,2.7,30.8,8.2S97.2,62.1,97.2,71.5ZM8.4,155.7c0-17.3,16.4-26,48.7-26s48.7,8.8,48.7,26.1a19.74,19.74,0,0,1-2.3,10.1c-5.3,10.5-20.9,15.9-46.4,15.9C24.8,181.7,8.4,172.9,8.4,155.7Z"/><path class="cls-1" d="M158.1,19.4a9.35,9.35,0,0,0,6.9-2.8,9.59,9.59,0,0,0,2.8-6.9A9.35,9.35,0,0,0,165,2.8,9.76,9.76,0,0,0,158.1,0a9.35,9.35,0,0,0-6.9,2.8,9.59,9.59,0,0,0-2.8,6.9,9.35,9.35,0,0,0,2.8,6.9A9,9,0,0,0,158.1,19.4Z"/><path class="cls-1" d="M152.6,136.3H137.5c-2.7,0-4.2,1.5-4.2,4.2s1.5,4.2,4.2,4.2h43.2c2.7,0,4.2-1.5,4.2-4.2s-1.5-4.2-4.2-4.2H165.6c-1.6,0-2.2-.6-2.2-2.2V39c0-2.7-1.5-4.2-4.2-4.2H137.6c-2.7,0-4.2,1.5-4.2,4.2s1.5,4.2,4.2,4.2h15.1c1.6,0,2.2.6,2.2,2.2V134C154.9,135.7,154.3,136.3,152.6,136.3Z"/><path class="cls-1" d="M251,146.9c15.9,0,29-5.3,39-15.9s15-24.4,15-41.3-5-30.8-15-41.3-23.1-15.9-39-15.9-29,5.3-39,15.9-15,24.4-15,41.3,5,30.8,15,41.3S235.1,146.9,251,146.9ZM205.5,89.8c0-14.7,4.2-26.7,12.5-35.5S237.4,41,251,41s24.7,4.5,33,13.3,12.5,20.8,12.5,35.5-4.2,26.6-12.4,35.4-19.3,13.2-33.1,13.2-24.9-4.4-33.1-13.2S205.5,104.6,205.5,89.8Z"/><path class="cls-1" d="M429.3,43.2h14c2.7,0,4.2-1.5,4.2-4.2s-1.5-4.2-4.2-4.2H402.2c-2.7,0-4.2,1.5-4.2,4.2s1.5,4.2,4.2,4.2h13.4c1.1,0,1.6.2,1.7.4s.1.5-.4,1.5l-37.6,88c-.2.4-.3.6-.4.6s-.2-.1-.4-.7L340.9,44.9c-.5-.8-.5-1.3-.4-1.4s.5-.4,1.7-.4h13.4c2.7,0,4.2-1.5,4.2-4.2s-1.5-4.2-4.2-4.2H314.5c-2.7,0-4.2,1.5-4.2,4.2s1.5,4.2,4.2,4.2h14c1.5,0,2.6.9,3.4,2.6l41.8,97.4c1.3,2.5,3.1,3.8,5.2,3.8s3.9-1.3,5.2-3.8l41.7-97.2C426.7,44,427.9,43.2,429.3,43.2Z"/><path class="cls-1" d="M533,126.9c.8-.8,1.1-.8,1.1-.8a3.12,3.12,0,0,1,.6,2.3v12.1c0,2.7,1.5,4.2,4.2,4.2h21.6c2.7,0,4.2-1.5,4.2-4.2s-1.5-4.2-4.2-4.2H545.4c-1.6,0-2.2-.6-2.2-2.2V69.3a34.44,34.44,0,0,0-11.3-26.1c-7.5-7-17.6-10.5-29.9-10.5-15.9,0-29.3,4.4-39.7,12.9-2,1.5-2.3,3.5-.8,5.7a3.66,3.66,0,0,0,2.5,1.6c1.3.2,2.7-.4,4.4-1.6,2.3-1.8,6.4-4,12.2-6.5s13.2-3.7,22.3-3.7c8.9,0,16.6,2.7,22.7,8.1a25.67,25.67,0,0,1,9.2,20.1v8.6c0,1.6-.6,2.2-2.2,2.2H496.9c-13.1,0-23.9,3.2-32,9.4s-12.3,14.5-12.3,24.2,3.6,17.8,10.7,24,17.5,9.2,31.1,9.2a42.65,42.65,0,0,0,22.1-6.3A59,59,0,0,0,533,126.9Zm1.7-36.1V110a67.78,67.78,0,0,1-5,7.7c-10.4,13.7-22.6,20.7-36.2,20.7-11,0-19.2-2.4-24.5-7a22.62,22.62,0,0,1-8-17.8,22.16,22.16,0,0,1,8.6-17.9c5.8-4.7,14.9-7.1,27.1-7.1h35.7C534,88.6,534.7,89.2,534.7,90.8Z"/><path class="cls-1" d="M594.5,136.3H579.4c-2.7,0-4.2,1.5-4.2,4.2s1.5,4.2,4.2,4.2h41.1c2.7,0,4.2-1.5,4.2-4.2s-1.5-4.2-4.2-4.2h-13c-1.6,0-2.2-.6-2.2-2.2V69.5a79.17,79.17,0,0,1,10.9-14.1C625.8,45.8,636,41,646.6,41s19.1,3,25.2,8.9S681,64.8,681,76.7V134c0,1.6-.6,2.2-2.2,2.2h-13c-2.7,0-4.2,1.5-4.2,4.2s1.5,4.2,4.2,4.2h41.1c2.7,0,4.2-1.5,4.2-4.2s-1.5-4.2-4.2-4.2H691.8c-1.6,0-2.2-.6-2.2-2.2V76.7c0-14.2-3.8-25.2-11.4-32.8s-18.5-11.4-32.4-11.4-27,6.7-38.7,20a3.27,3.27,0,0,1-1.2.9,3.12,3.12,0,0,1-.6-2.3V39c0-2.7-1.5-4.2-4.2-4.2H579.5c-2.7,0-4.2,1.5-4.2,4.2s1.5,4.2,4.2,4.2h15.1c1.6,0,2.2.6,2.2,2.2V134C596.7,135.7,596.1,136.3,594.5,136.3Z"/><path class="cls-1" d="M800.4,80.1H764.7c-13.1,0-23.9,3.2-32,9.4s-12.3,14.5-12.3,24.2,3.6,17.8,10.7,24,17.5,9.2,31.1,9.2a42.65,42.65,0,0,0,22.1-6.3c7-4.1,12.5-8.7,16.4-13.7.8-.8,1.1-.8,1.1-.8a3.12,3.12,0,0,1,.6,2.3v12.1c0,2.7,1.5,4.2,4.2,4.2h21.6c2.7,0,4.2-1.5,4.2-4.2s-1.5-4.2-4.2-4.2H813.1c-1.6,0-2.2-.6-2.2-2.2V69.3a34.44,34.44,0,0,0-11.3-26.1c-7.5-7-17.6-10.5-29.9-10.5-15.9,0-29.3,4.4-39.7,12.9-2,1.5-2.3,3.5-.8,5.7a3.66,3.66,0,0,0,2.5,1.6c1.3.2,2.7-.4,4.4-1.6,2.3-1.8,6.4-4,12.2-6.5s13.2-3.7,22.3-3.7c8.9,0,16.6,2.7,22.7,8.1a25.67,25.67,0,0,1,9.2,20.1v8.6C802.7,79.5,802.1,80.1,800.4,80.1Zm2.3,10.7V110a67.78,67.78,0,0,1-5,7.7c-10.4,13.7-22.6,20.7-36.2,20.7-11,0-19.2-2.4-24.5-7a22.62,22.62,0,0,1-8-17.8,22.16,22.16,0,0,1,8.6-17.9c5.8-4.7,14.9-7.1,27.1-7.1h35.7C802.1,88.6,802.7,89.2,802.7,90.8Z"/><path class="cls-1" d="M109,354.6H93.9c-1.6,0-2.2-.6-2.2-2.2V287.6a34.44,34.44,0,0,0-11.3-26.1c-7.5-7-17.6-10.5-29.9-10.5-15.9,0-29.3,4.4-39.7,12.9-2,1.5-2.3,3.5-.8,5.7a3.66,3.66,0,0,0,2.5,1.6c1.3.2,2.7-.4,4.4-1.6,2.3-1.8,6.4-4,12.2-6.5s13.2-3.7,22.3-3.7c8.9,0,16.6,2.7,22.7,8.1a25.67,25.67,0,0,1,9.2,20.1v8.6c0,1.6-.6,2.2-2.2,2.2H45.4c-13.1,0-23.9,3.2-32,9.4S1.1,322.3,1.1,332s3.6,17.8,10.7,24,17.5,9.2,31.1,9.2A42.65,42.65,0,0,0,65,358.9c7-4.1,12.5-8.7,16.4-13.7.8-.8,1.1-.8,1.1-.8a3.12,3.12,0,0,1,.6,2.3v12.1c0,2.7,1.5,4.2,4.2,4.2h21.6c2.7,0,4.2-1.5,4.2-4.2S111.7,354.6,109,354.6ZM83.1,309.1v19.2a67.78,67.78,0,0,1-5,7.7c-10.4,13.8-22.6,20.8-36.2,20.8-11,0-19.2-2.4-24.5-7a23.35,23.35,0,0,1,.6-35.7c5.8-4.7,14.9-7.1,27.1-7.1H80.8C82.5,306.9,83.1,307.5,83.1,309.1Z"/><path class="cls-1" d="M255.3,354.6H240.2c-1.6,0-2.2-.6-2.2-2.2V295.1c0-14.2-3.8-25.2-11.4-32.8s-18.5-11.4-32.4-11.4-27,6.7-38.7,20a3.27,3.27,0,0,1-1.2.9,3.12,3.12,0,0,1-.6-2.3V257.4c0-2.7-1.5-4.2-4.2-4.2H127.9c-2.7,0-4.2,1.5-4.2,4.2s1.5,4.2,4.2,4.2H143c1.6,0,2.2.6,2.2,2.2v88.6c0,1.6-.6,2.2-2.2,2.2H127.9c-2.7,0-4.2,1.5-4.2,4.2s1.5,4.2,4.2,4.2H169c2.7,0,4.2-1.5,4.2-4.2s-1.5-4.2-4.2-4.2H156c-1.6,0-2.2-.6-2.2-2.2V287.8a79.17,79.17,0,0,1,10.9-14.1c9.6-9.6,19.8-14.4,30.4-14.4s19.1,3,25.2,8.9,9.2,14.9,9.2,26.8v57.4c0,1.6-.6,2.2-2.2,2.2h-13c-2.7,0-4.2,1.5-4.2,4.2s1.5,4.2,4.2,4.2h41.1c2.7,0,4.2-1.5,4.2-4.2S258,354.6,255.3,354.6Z"/><path class="cls-1" d="M363,316.4c-4.7-4-11.4-6.9-19.9-8.9-4-.9-8.5-1.6-13.7-2.4-4.9-.7-9.9-1.5-14.9-2.4-11.2-1.7-19.6-4.3-25-7.7s-7.9-8-7.9-14.2,3-11.2,9.2-15.3,15.2-6.2,26.8-6.2a38.18,38.18,0,0,1,16.6,3.4,61.82,61.82,0,0,1,23.2,18.7v10.5c0,2.7,1.5,4.2,4.2,4.2s4.2-1.5,4.2-4.2V257.3c0-2.7-1.5-4.2-4.2-4.2s-4.2,1.5-4.2,4.2V266a5.42,5.42,0,0,1-.6,2.5,5,5,0,0,1-1.2-1C344.7,256.6,332,251,317.9,251s-25.1,2.9-32.9,8.6-12,12.7-12,20.6,2.3,14,6.8,18.2,11.1,7.5,19.9,9.9c4,1.2,10.4,2.4,19.4,3.7,8.8,1.3,16.5,2.6,22.8,4.1,13.3,3.1,19.8,9,19.8,18,0,6.8-3.1,12.1-9.6,16.3s-16,6.4-28.3,6.4c-7.2,0-13.5-1.1-18.6-3.4a56.28,56.28,0,0,1-23.6-18.6V324.3c0-2.7-1.5-4.2-4.2-4.2s-4.2,1.5-4.2,4.2v34.6c0,2.7,1.5,4.2,4.2,4.2s4.2-1.5,4.2-4.2v-8.7a6,6,0,0,1,.5-2.4,5.41,5.41,0,0,1,1.5,1.3,50,50,0,0,0,6.9,5.6,58.19,58.19,0,0,0,33.4,10.5c15.3,0,26.9-3,34.6-8.8s11.7-13.1,11.7-21.4S367.8,320.4,363,316.4Z"/><path class="cls-1" d="M444.9,250.9c-15.9,0-29,5.3-39,15.9s-15,24.4-15,41.3,5,30.8,15,41.3,23.1,15.9,39,15.9,29-5.3,39-15.9,15-24.4,15-41.3-5-30.8-15-41.3S460.8,250.9,444.9,250.9Zm45.4,57.3c0,14.7-4.2,26.6-12.4,35.4s-19.3,13.2-33.1,13.2-24.9-4.4-33.1-13.2-12.4-20.7-12.4-35.4,4.2-26.7,12.5-35.5,19.4-13.3,33-13.3,24.7,4.5,33,13.3S490.3,293.4,490.3,308.2Z"/><path class="cls-1" d="M624.7,354.6H609.6c-1.6,0-2.2-.6-2.2-2.2V287.6a34.44,34.44,0,0,0-11.3-26.1c-7.5-7-17.6-10.5-29.9-10.5-15.9,0-29.3,4.4-39.7,12.9-2,1.5-2.3,3.5-.8,5.7a3.66,3.66,0,0,0,2.5,1.6c1.3.2,2.7-.4,4.4-1.6,2.3-1.8,6.4-4,12.2-6.5s13.2-3.7,22.3-3.7c8.9,0,16.6,2.7,22.7,8.1a25.67,25.67,0,0,1,9.2,20.1v8.6c0,1.6-.6,2.2-2.2,2.2H561.1c-13.1,0-23.9,3.2-32,9.4s-12.3,14.5-12.3,24.2,3.6,17.8,10.7,24,17.5,9.2,31.1,9.2a42.65,42.65,0,0,0,22.1-6.3c7-4.1,12.5-8.7,16.4-13.7.8-.8,1.1-.8,1.1-.8a3.12,3.12,0,0,1,.6,2.3v12.1c0,2.7,1.5,4.2,4.2,4.2h21.6c2.7,0,4.2-1.5,4.2-4.2S627.4,354.6,624.7,354.6Zm-25.8-45.5v19.2a67.78,67.78,0,0,1-5,7.7c-10.4,13.8-22.6,20.8-36.2,20.8-11,0-19.2-2.4-24.5-7a23.35,23.35,0,0,1,.6-35.7c5.8-4.7,14.9-7.1,27.1-7.1h35.7C598.2,306.9,598.9,307.5,598.9,309.1Z"/><path class="cls-1" d="M657.4,221.2a9.59,9.59,0,0,0-2.8,6.9,9.35,9.35,0,0,0,2.8,6.9,9.59,9.59,0,0,0,6.9,2.8,9.35,9.35,0,0,0,6.9-2.8,9.59,9.59,0,0,0,2.8-6.9,9.35,9.35,0,0,0-2.8-6.9,9.9,9.9,0,0,0-13.8,0Z"/><path class="cls-1" d="M687,354.6H671.9c-1.6,0-2.2-.6-2.2-2.2V257.3c0-2.7-1.5-4.2-4.2-4.2H643.9c-2.7,0-4.2,1.5-4.2,4.2s1.5,4.2,4.2,4.2H659c1.6,0,2.2.6,2.2,2.2v88.7c0,1.6-.6,2.2-2.2,2.2H643.9c-2.7,0-4.2,1.5-4.2,4.2s1.5,4.2,4.2,4.2h43.2c2.7,0,4.2-1.5,4.2-4.2S689.7,354.6,687,354.6Z"/><path class="cls-1" d="M832.9,354.6H817.8c-1.6,0-2.2-.6-2.2-2.2V295.1c0-14.2-3.8-25.2-11.4-32.8s-18.5-11.4-32.4-11.4-27,6.7-38.7,20a3.27,3.27,0,0,1-1.2.9,3.12,3.12,0,0,1-.6-2.3V257.4c0-2.7-1.5-4.2-4.2-4.2H705.5c-2.7,0-4.2,1.5-4.2,4.2s1.5,4.2,4.2,4.2h15.1c1.6,0,2.2.6,2.2,2.2v88.6c0,1.6-.6,2.2-2.2,2.2H705.5c-2.7,0-4.2,1.5-4.2,4.2s1.5,4.2,4.2,4.2h41.1c2.7,0,4.2-1.5,4.2-4.2s-1.5-4.2-4.2-4.2h-13c-1.6,0-2.2-.6-2.2-2.2V287.8a79.17,79.17,0,0,1,10.9-14.1c9.6-9.6,19.8-14.4,30.4-14.4s19.1,3,25.2,8.9,9.2,14.9,9.2,26.8v57.4c0,1.6-.6,2.2-2.2,2.2h-13c-2.7,0-4.2,1.5-4.2,4.2s1.5,4.2,4.2,4.2H833c2.7,0,4.2-1.5,4.2-4.2S835.6,354.6,832.9,354.6Z"/></g></g></svg>