<?xml version="1.0" standalone="no"?>
<!DOCTYPE svg PUBLIC "-//W3C//DTD SVG 20010904//EN"
 "http://www.w3.org/TR/2001/REC-SVG-20010904/DTD/svg10.dtd">
<svg version="1.0" xmlns="http://www.w3.org/2000/svg"
 width="632.000000pt" height="632.000000pt" viewBox="0 0 632.000000 632.000000"
 preserveAspectRatio="xMidYMid meet">
<metadata>
Created by potrace 1.11, written by Peter Selinger 2001-2013
</metadata>
<g transform="translate(0.000000,632.000000) scale(0.100000,-0.100000)"
fill="#000000" stroke="none">
<path d="M2649 6315 c-2 -2 -35 -6 -74 -9 -38 -3 -79 -8 -90 -10 -11 -2 -47
-7 -80 -12 -33 -4 -62 -8 -65 -9 -7 -2 -121 -27 -140 -30 -8 -2 -15 -4 -15 -5
0 -1 -10 -3 -23 -6 -35 -6 -203 -64 -234 -80 -15 -8 -30 -14 -33 -14 -20 0
-259 -130 -275 -150 -3 -3 -19 -15 -36 -25 -100 -63 -260 -224 -333 -335 -20
-30 -39 -57 -42 -60 -12 -10 -112 -213 -124 -250 -1 -3 -11 -35 -22 -71 -12
-36 -24 -82 -27 -103 -4 -21 -8 -41 -10 -45 -10 -16 -20 -164 -20 -281 1 -157
11 -286 29 -380 3 -14 7 -35 10 -48 18 -94 94 -319 120 -352 7 -8 15 -23 18
-32 8 -23 98 -155 132 -193 42 -47 67 -93 63 -116 -2 -16 -29 -35 -101 -73
-284 -147 -410 -318 -409 -554 1 -145 58 -265 189 -399 60 -60 89 -80 187
-129 64 -31 116 -61 116 -65 0 -10 -75 -59 -90 -59 -5 0 -10 -4 -10 -10 0 -5
-3 -9 -8 -8 -18 6 -165 -105 -247 -187 -95 -94 -180 -213 -239 -334 -33 -68
-75 -184 -83 -226 -2 -11 -10 -56 -18 -100 -15 -77 -15 -304 0 -378 3 -15 7
-38 10 -52 3 -14 7 -36 9 -50 15 -92 107 -303 173 -398 53 -77 209 -227 294
-284 161 -108 370 -201 584 -258 103 -27 87 -23 165 -40 50 -11 76 -15 110
-20 19 -3 46 -8 60 -12 14 -3 36 -7 50 -8 14 -2 48 -6 75 -9 252 -33 397 -41
770 -41 288 0 468 7 533 19 12 3 52 6 87 8 36 2 65 6 65 9 0 3 6 6 13 6 26 1
126 13 139 18 7 2 29 6 48 9 19 3 46 8 60 11 14 3 39 8 55 10 71 13 364 98
390 114 6 3 12 6 15 6 39 2 349 161 380 195 3 3 30 24 60 46 311 232 458 594
425 1046 -14 197 -108 470 -206 598 -85 111 -267 275 -357 321 -15 8 -29 16
-32 19 -3 3 -44 24 -91 47 -164 81 -396 156 -619 199 -61 11 -77 14 -114 20
-21 3 -48 8 -60 10 -11 2 -47 7 -78 10 -32 3 -68 7 -80 10 -22 4 -172 16 -230
18 -16 0 -28 3 -28 6 0 3 -363 7 -807 9 -445 2 -826 5 -848 7 -311 23 -475
124 -477 294 0 91 20 146 81 212 42 46 219 138 336 173 l87 27 101 -51 c97
-47 260 -107 357 -129 25 -6 65 -15 90 -21 51 -12 127 -26 195 -35 108 -14
141 -18 202 -23 109 -8 581 -9 667 0 180 18 404 65 541 113 39 13 76 27 83 29
7 2 13 4 15 4 7 -2 233 116 235 123 2 4 7 8 12 8 14 0 109 68 191 136 230 192
396 462 464 759 28 117 36 326 21 490 -3 39 -6 79 -7 89 0 11 -9 65 -20 120
-11 56 -21 106 -23 111 -1 6 -4 15 -8 20 -3 6 -9 25 -13 43 -26 122 -163 374
-256 470 -35 38 -44 84 -22 118 20 32 158 90 258 110 68 13 130 17 297 17 209
-1 237 -8 239 -61 0 -15 1 -214 2 -442 2 -393 3 -417 22 -455 27 -54 78 -82
147 -79 86 3 127 27 153 90 14 36 15 105 13 595 l-3 554 -24 32 c-45 61 -70
64 -410 64 -397 -1 -430 -3 -576 -35 -75 -16 -264 -107 -315 -152 -8 -7 -34
-29 -57 -49 l-42 -36 -38 24 c-35 22 -118 63 -208 102 -79 35 -311 104 -371
111 -12 1 -39 7 -60 13 -22 6 -61 13 -88 16 -28 4 -52 8 -56 10 -3 2 -41 6
-85 10 -44 4 -89 9 -100 12 -23 6 -581 14 -586 8z m531 -339 c63 -4 128 -9
143 -12 16 -2 50 -6 75 -9 41 -4 71 -9 181 -30 125 -24 334 -97 411 -143 19
-12 49 -29 65 -38 88 -49 229 -186 298 -289 141 -210 198 -427 192 -725 -1
-91 -8 -187 -14 -215 -6 -27 -13 -61 -15 -75 -10 -56 -50 -169 -86 -241 -200
-401 -577 -601 -1220 -646 -174 -12 -579 -6 -665 11 -11 2 -47 7 -80 10 -50 6
-140 23 -215 41 -8 2 -28 6 -45 10 -73 17 -217 70 -293 108 -279 140 -492 420
-547 721 -3 16 -8 32 -10 36 -17 27 -25 345 -12 450 22 170 60 294 134 430 99
182 267 341 456 430 99 47 220 90 297 106 14 3 33 7 42 10 9 3 27 7 40 10 13
2 37 7 53 10 17 4 39 7 50 8 42 5 141 18 165 22 14 2 77 7 140 10 63 4 116 7
117 8 4 3 240 -3 343 -8z m57 -3560 c128 -7 185 -11 278 -21 106 -10 140 -14
140 -15 0 -1 16 -3 35 -5 33 -3 54 -7 110 -20 14 -3 39 -8 56 -11 17 -2 66
-14 110 -25 43 -10 89 -22 100 -24 12 -3 64 -20 115 -38 312 -112 520 -276
629 -495 26 -53 71 -184 69 -200 -1 -4 -1 -9 0 -12 8 -22 13 -93 14 -195 0
-92 -5 -139 -22 -205 -24 -91 -85 -220 -134 -285 -40 -53 -151 -160 -188 -182
-16 -10 -29 -21 -29 -25 0 -4 -6 -8 -14 -8 -8 0 -22 -7 -30 -15 -35 -35 -314
-153 -426 -180 -115 -28 -244 -56 -280 -60 -25 -3 -67 -10 -95 -15 -27 -5 -84
-12 -125 -16 -41 -3 -83 -8 -92 -10 -126 -23 -828 -23 -1020 1 -21 3 -55 7
-75 10 -21 2 -67 7 -103 11 -36 3 -68 8 -71 10 -4 2 -28 6 -53 9 -99 10 -383
83 -481 124 -116 48 -279 136 -313 168 -7 7 -17 13 -21 13 -9 0 -126 113 -161
156 -70 85 -143 247 -155 347 -3 22 -8 43 -10 48 -7 11 -7 213 0 254 3 17 8
46 11 65 47 276 272 518 609 654 39 16 79 32 90 37 31 13 228 67 271 74 22 3
55 10 74 15 19 4 53 11 75 14 22 3 51 8 65 11 14 3 52 7 85 10 33 3 78 8 100
10 67 10 124 13 285 21 85 3 156 7 157 8 4 3 316 -3 420 -8z"/>
</g>
</svg>
