<?xml version="1.0" encoding="utf-8"?>
<!-- Generator: Adobe Illustrator 22.0.1, SVG Export Plug-In . SVG Version: 6.00 Build 0)  -->
<svg version="1.1" id="Layer_1" xmlns="http://www.w3.org/2000/svg" xmlns:xlink="http://www.w3.org/1999/xlink" x="0px" y="0px"
	 viewBox="0 0 512 512" style="enable-background:new 0 0 512 512;" xml:space="preserve">
<g transform="translate(1 1)">
	<g>
		<g>
			<path d="M255-1C114.2-1-1,114.2-1,255s115.2,256,256,256s256-115.2,256-256S395.8-1,255-1z M255,493.9
				C123.6,493.9,16.1,386.4,16.1,255S123.6,16.1,255,16.1S493.9,123.6,493.9,255S386.4,493.9,255,493.9z"/>
			<path d="M127,92.9c1.7,0,3.4-0.9,4.3-2.6c26.5-19.6,58-33.3,90.5-38.4c4.3,0,7.7-5.1,6.8-9.4c0-4.3-5.1-7.7-9.4-6.8
				c-35,6-68.3,20.5-97.3,41.8c-3.4,2.6-4.3,8.5-1.7,11.9C121.9,92,124.4,92.9,127,92.9z"/>
			<path d="M89.5,121c-3.4-2.6-9.4-1.7-11.9,1.7C55.3,150.9,41.7,185,35.7,220c-0.9,4.3,2.6,8.5,6.8,9.4c0.9,0,0.9,0,1.7,0
				c4.3,0,7.7-2.6,8.5-6.8c5.1-32.4,18.8-63.1,38.4-89.6C93.7,129.6,92.9,123.6,89.5,121z"/>
			<path d="M51.9,288.3c0-4.3-5.1-7.7-9.4-6.8c-4.3,0-7.7,5.1-6.8,9.4c6,35,20.5,68.3,41.8,97.3c1.7,2.6,4.3,3.4,6.8,3.4
				c1.7,0,3.4-0.9,4.3-0.9c3.4-2.6,4.3-8.5,1.7-11.9C70.7,352.3,57,320.7,51.9,288.3z"/>
			<path d="M221.7,457.2c-32.4-5.1-63.1-18.8-89.6-38.4c-3.4-2.6-9.4-1.7-11.9,1.7c-2.6,3.4-1.7,9.4,1.7,11.9
				c28.2,22.2,62.3,35.8,97.3,41.8c0.9,0,0.9,0,1.7,0c4.3,0,7.7-3.4,7.7-7.7C229.4,462.4,226,458.1,221.7,457.2z"/>
			<path d="M377,419.7c-26.5,19.6-57.2,33.3-89.6,38.4c-4.3,0-7.7,5.1-6.8,9.4s4.3,6.8,8.5,6.8c0.9,0,0.9,0,0.9,0.9
				c35-6,68.3-20.5,97.3-41.8c3.4-2.6,4.3-8.5,1.7-11.9C386.4,418,380.4,417.1,377,419.7z"/>
			<path d="M466.6,281.5c-4.3-0.9-8.5,2.6-9.4,6.8c-5.1,32.4-18.8,63.1-38.4,89.6c-2.6,3.4-1.7,9.4,1.7,11.9
				c1.7,0.9,3.4,1.7,5.1,1.7c2.6,0,5.1-1.7,6-3.4c22.2-28.2,35.8-62.3,41.8-97.3C474.3,286.6,470.9,282.3,466.6,281.5z"/>
			<path d="M457.2,222.6c0.9,4.3,4.3,6.8,8.5,6.8c0,0,0.9,0,1.7-0.9c4.3,0,7.7-5.1,6.8-9.4c-6-35-20.5-68.3-41.8-97.3
				c-2.6-3.4-8.5-4.3-11.9-1.7s-4.3,8.5-1.7,11.9C438.5,158.6,452.1,190.1,457.2,222.6z"/>
			<path d="M287.4,52.8c32.4,5.1,64,18.8,90.5,38.4c1.7,0.9,3.4,1.7,5.1,1.7c2.6,0,5.1-0.9,6-2.6c2.6-3.4,1.7-9.4-1.7-11.9
				C359.1,57,325,42.5,290,36.5c-4.3-0.9-8.5,2.6-9.4,6.8S283.2,51.9,287.4,52.8z"/>
			<path d="M255,84.3c5.1,0,8.5-4.3,8.5-8.5V41.7c0-5.1-3.4-8.5-8.5-8.5s-8.5,3.4-8.5,8.5v34.1C246.5,80.9,249.9,84.3,255,84.3z"/>
			<path d="M255,425.7c-5.1,0-8.5,3.4-8.5,8.5v34.1c0,5.1,3.4,8.5,8.5,8.5s8.5-3.4,8.5-8.5v-34.1C263.5,429.1,260.1,425.7,255,425.7
				z"/>
			<path d="M468.3,246.5h-34.1c-5.1,0-8.5,3.4-8.5,8.5s3.4,8.5,8.5,8.5h34.1c5.1,0,8.5-3.4,8.5-8.5S473.5,246.5,468.3,246.5z"/>
			<path d="M75.8,263.5c4.3,0,8.5-3.4,8.5-8.5s-3.4-8.5-8.5-8.5H41.7c-5.1,0-8.5,3.4-8.5,8.5s3.4,8.5,8.5,8.5H75.8z"/>
			<path d="M400.1,98l-23.9,23.9c-3.4,3.4-3.4,8.5,0,11.9c1.7,1.7,3.4,2.6,6,2.6c1.7,0,4.3-0.9,6-2.6l23.9-23.9
				c3.4-3.4,3.4-8.5,0-11.9S403.5,94.6,400.1,98z"/>
			<path d="M133.8,376.2c-3.4-3.4-8.5-3.4-11.9,0L98,400.1c-3.4,3.4-3.4,8.5,0,11.9c1.7,1.7,3.4,2.6,6,2.6s4.3-0.9,6-2.6l23.9-23.9
				C137.2,384.7,137.2,379.6,133.8,376.2z"/>
			<path d="M388.1,376.2c-3.4-3.4-8.5-3.4-11.9,0s-3.4,8.5,0,11.9l23.9,23.9c1.7,1.7,3.4,2.6,6,2.6c1.7,0,4.3-0.9,6-2.6
				c3.4-3.4,3.4-8.5,0-11.9L388.1,376.2z"/>
			<path d="M121.9,133.8c1.7,1.7,3.4,2.6,6,2.6s5.1-0.9,6-2.6c3.4-3.4,3.4-8.5,0-11.9l-24-23.9c-3.4-3.4-8.5-3.4-11.9,0
				s-3.4,8.5,0,11.9L121.9,133.8z"/>
			<path d="M348.9,263.5c5.1,0,8.5-3.4,8.5-8.5s-3.4-8.5-8.5-8.5H288c-3.1-11.9-12.6-21.4-24.5-24.5v-95c0-5.1-3.4-8.5-8.5-8.5
				s-8.5,3.4-8.5,8.5v95c-14.7,3.8-25.6,17.2-25.6,33c0,18.8,15.4,34.1,34.1,34.1c15.8,0,29.2-10.9,33-25.6H348.9L348.9,263.5z
				 M255,272.1c-9.4,0-17.1-7.7-17.1-17.1s7.7-17.1,17.1-17.1c9.4,0,17.1,7.7,17.1,17.1C272.1,264.4,264.4,272.1,255,272.1z"/>
		</g>
	</g>
</g>
</svg>
