<?xml version="1.0" encoding="utf-8"?>
<!-- Generator: Adobe Illustrator 22.0.1, SVG Export Plug-In . SVG Version: 6.00 Build 0)  -->
<svg version="1.1" id="Layer_1" xmlns="http://www.w3.org/2000/svg" xmlns:xlink="http://www.w3.org/1999/xlink" x="0px" y="0px"
	 viewBox="0 0 512 512" style="enable-background:new 0 0 512 512;" xml:space="preserve">
<g transform="translate(1 1)">
	<g>
		<g>
			<path d="M470.6-1H273c-15.3,0-27,11.7-27,26.9v8.9C224.6,23.4,200.2,17,174.2,17C89.7,17,21.5,85.2,21.5,169.7
				c0,25.5,6.4,50.1,18.1,71.9h-0.1c-15.3,0-26.9,11.7-26.9,26.9v161.7c0,11.7,7.2,21.6,18,25.2V502c0,3.6,1.8,7.2,5.4,8.1
				c0.9,0.9,2.7,0.9,3.6,0.9c2.7,0,4.5-0.9,6.3-2.7l51.2-51.2h194c15.3,0,26.9-11.7,26.9-26.9v-68.3l21.6-21.6h131.1
				c15.3,0,26.9-11.7,26.9-26.9V25.9C497.5,10.7,485.8-1,470.6-1z M174.2,34.9c27.6,0,53.3,8.3,74.7,22.5c0.3,0.3,0.5,0.6,0.8,0.9
				c34.5,23.5,56.3,61.2,59,102.7c0,0.2,0,0.3,0,0.5c0.1,1.1,0.1,2.2,0.2,3.3c0,0.3,0,0.6,0,0.8c0,1.3,0.1,2.6,0.1,4l0,0
				c0,1.3,0,2.6-0.1,4c0,0.3,0,0.6,0,0.8c0,1.1-0.1,2.2-0.2,3.3c0,0.2,0,0.3,0,0.5c-2.7,41.5-24.5,79.2-59,102.7
				c-0.3,0.3-0.5,0.6-0.8,0.9c-5,3.3-10.3,6.4-15.7,9c-25.1,11.9-53.3,16-80.8,11.5c-7.1-1.2-14.1-3-21.2-5.2
				c-2.7-1.8-6.3-0.9-9,1.8l-28.7,28.7v-45.8c0-2.7-0.9-5.4-3.6-7.2c-1.8-1.5-3.6-3.1-5.4-4.7c-0.2-0.2-0.4-0.4-0.7-0.6
				c-0.7-0.6-1.3-1.2-2-1.9c-6.8-6.6-13.1-14-18.9-22.5l-0.1-0.1C48,222.9,39.6,197,39.6,169.5C39.4,95.1,99.6,34.9,174.2,34.9z
				 M299.9,430.2c0,5.4-3.6,9-9,9H93.3c-2.7,0-4.5,0.9-6.3,2.7l-38.6,38.6v-32.3c0-5.4-3.6-9-9-9s-9-3.6-9-9V268.5c0-5.4,3.6-9,9-9
				h11.5c7,9.5,15.2,18.3,24.4,26v63.8c0,3.6,1.8,7.2,5.4,8.1c0.7,0.7,2.1,0.9,3,0.9c1.1,0.1,2.1,0,3.1-0.3c1.2-0.3,2.2-1,3.2-1.9
				c0.2-0.2,0.4-0.3,0.5-0.5l39.5-39.5c7.3,2.3,14.8,3.9,22.3,4.9c25.3,3.6,50.7,0.8,74.1-7.8c0.2-0.1,0.5-0.2,0.7-0.3
				c0.7-0.3,1.5-0.6,2.2-0.8c5.7-2.2,11.2-4.7,16.5-7.6v26.9c0,5.4,3.6,9,9,9h18v44.9c0,3.6,1.8,7.2,5.4,8.1c0.7,0.7,2.1,0.9,3,0.9
				c1.1,0.1,2.1,0,3.1-0.3c1.2-0.3,2.2-1,3.2-1.9c0.2-0.2,0.4-0.3,0.5-0.5l11.7-11.7L299.9,430.2L299.9,430.2z M479.6,313.4
				c0,5.4-3.6,9-9,9H335.8c-2.7,0-4.5,0.9-6.3,2.7L302.6,352l0,0l-11.7,11.7v-32.3c0-5.4-3.6-9-9-9h-18v-29.2
				c9.8-7.2,18.8-15.5,26.7-24.7h64.1c4.5,0,8.1-3.6,8.1-9s-3.6-9-8.1-9h-50.9c5.3-8.5,9.8-17.5,13.3-26.9h55.6c4.5,0,8.1-3.6,8.1-9
				s-2.7-9-8.1-9h-50.1c2.1-8.6,3.4-17.6,4-26.7c0-0.1,0-0.2,0-0.2h18.2c5.4,0,9-3.6,9-9s-3.6-9-9-9h-18.2c0-0.1,0-0.2,0-0.2
				c-0.5-9.1-1.9-18.1-4-26.7h50.1c4.5,0,8.1-3.6,8.1-9s-2.7-9-8.1-9h-55.6c-3.6-9.5-8-18.5-13.3-26.9h32.1c5.4,0,9-3.6,9-9
				s-3.6-9-9-9H291c-0.1,0-0.2,0-0.3,0c-7.9-9.3-16.8-17.6-26.7-24.8V25.9c0-5.4,3.6-9,9-9h197.6c5.4,0,9,3.6,9,9L479.6,313.4
				L479.6,313.4z"/>
			<path d="M434.6,70.9h-62.9c-5.4,0-9,3.6-9,9s3.6,9,9,9h62.9c5.4,0,9-3.6,9-9S440,70.9,434.6,70.9z"/>
			<path d="M434.6,115.8h-26.9c-5.4,0-9,3.6-9,9c0,5.4,3.6,9,9,9h26.9c5.4,0,9-3.6,9-9S440,115.8,434.6,115.8z"/>
			<path d="M434.6,160.7h-53.9c-5.4,0-9,3.6-9,9s3.6,9,9,9h53.9c5.4,0,9-3.6,9-9S440,160.7,434.6,160.7z"/>
			<path d="M434.6,205.6h-26.9c-5.4,0-9,3.6-9,9s3.6,9,9,9h26.9c5.4,0,9-3.6,9-9C443.6,209.2,440,205.6,434.6,205.6z"/>
			<path d="M434.6,250.5h-44.9c-5.4,0-9,3.6-9,9s3.6,9,9,9h44.9c5.4,0,9-3.6,9-9S440,250.5,434.6,250.5z"/>
			<path d="M201.1,133.7H246c5.4,0,9-3.6,9-9s-3.6-9-9-9h-44.9c-5.4,0-9,3.6-9,9C192.1,130.1,195.7,133.7,201.1,133.7z"/>
			<path d="M102.3,133.7h62.9c5.4,0,9-3.6,9-9s-3.6-9-9-9h-62.9c-5.4,0-9,3.6-9,9C93.3,130.1,96.9,133.7,102.3,133.7z"/>
			<path d="M246,160.7h-9c-5.4,0-9,3.6-9,9s3.6,9,9,9h9c5.4,0,9-3.6,9-9S251.4,160.7,246,160.7z"/>
			<path d="M156.2,169.7c0,5.4,3.6,9,9,9h35.9c5.4,0,9-3.6,9-9s-3.6-9-9-9h-35.9C159.8,160.7,156.2,164.3,156.2,169.7z"/>
			<path d="M102.3,178.6h26.9c5.4,0,9-3.6,9-9s-3.6-9-9-9h-26.9c-5.4,0-9,3.6-9,9C93.3,175.1,96.9,178.6,102.3,178.6z"/>
			<path d="M246,205.6h-26.9c-5.4,0-9,3.6-9,9s3.6,9,9,9H246c5.4,0,9-3.6,9-9C255,209.2,251.4,205.6,246,205.6z"/>
			<path d="M102.3,223.6h80.8c5.4,0,9-3.6,9-9s-3.6-9-9-9h-80.8c-5.4,0-9,3.6-9,9S96.9,223.6,102.3,223.6z"/>
			<path d="M228.1,349.3h-62.9c-5.4,0-9,3.6-9,9s3.6,9,9,9h62.9c5.4,0,9-3.6,9-9C237,352.9,233.4,349.3,228.1,349.3z"/>
			<path d="M120.3,367.3h9c5.4,0,9-3.6,9-9s-3.6-9-9-9h-9c-5.4,0-9,3.6-9,9C111.3,363.7,114.9,367.3,120.3,367.3z"/>
			<path d="M228.1,394.2h-26.9c-5.4,0-9,3.6-9,9s3.6,9,9,9h26.9c5.4,0,9-3.6,9-9S233.4,394.2,228.1,394.2z"/>
			<path d="M165.2,394.2h-44.9c-5.4,0-9,3.6-9,9s3.6,9,9,9h44.9c5.4,0,9-3.6,9-9S170.6,394.2,165.2,394.2z"/>
		</g>
	</g>
</g>
</svg>
