<?xml version="1.0" encoding="utf-8"?>
<!-- Generator: Adobe Illustrator 22.0.1, SVG Export Plug-In . SVG Version: 6.00 Build 0)  -->
<svg version="1.1" id="Layer_1" xmlns="http://www.w3.org/2000/svg" xmlns:xlink="http://www.w3.org/1999/xlink" x="0px" y="0px"
	 viewBox="0 0 512 512" style="enable-background:new 0 0 512 512;" xml:space="preserve">
<g>
	<g>
		<path d="M511.9,7.6c0-0.2-0.1-0.4-0.1-0.6c-0.1-0.5-0.2-1.1-0.4-1.6c0-0.1-0.1-0.1-0.1-0.2c-0.1-0.2-0.2-0.3-0.3-0.5
			c-0.1-0.3-0.3-0.5-0.4-0.8c-0.2-0.4-0.5-0.8-0.8-1.1c-0.1-0.1-0.1-0.2-0.2-0.3c-0.1-0.1-0.3-0.2-0.4-0.3c-0.1-0.1-0.2-0.2-0.3-0.3
			c-0.1-0.1-0.1-0.1-0.2-0.2c0,0,0,0-0.1,0c0,0-0.1-0.1-0.1-0.1c-0.4-0.3-0.9-0.5-1.4-0.8c-0.2-0.1-0.4-0.2-0.6-0.3
			c-0.2-0.1-0.4-0.1-0.7-0.2c-0.3-0.1-0.6-0.1-0.8-0.2c-0.4-0.1-0.9-0.2-1.3-0.2c-0.3,0-0.5,0-0.8,0c0,0-0.1,0-0.1,0
			c-0.3,0-0.5,0-0.8,0c-0.4,0.1-0.8,0.2-1.2,0.3c-0.3,0.1-0.6,0.2-0.9,0.3c-0.2,0.1-0.4,0.1-0.6,0.2L21.7,248.4
			c-14.1,7.3-22,18.3-21.6,30.2c0.3,11.5,8.4,21.6,22.2,27.9l92.2,39.5c4.3,1.9,9.4-0.1,11.2-4.5c1.9-4.3-0.2-9.3-4.5-11.2l-92-39.5
			c-7.5-3.4-11.9-8-12-12.7c-0.1-5,4.5-10.5,12.4-14.6L454.2,43.6l-315.1,300c0,0,0,0.1-0.1,0.1c-0.6,0.6-1,1.2-1.3,1.9
			c-0.2,0.3-0.4,0.5-0.6,0.8c-0.1,0.3-0.1,0.6-0.2,0.9c-0.2,0.8-0.5,1.6-0.5,2.4c0,0,0,0.1,0,0.1v153.6c0,0.8,0.1,1.6,0.4,2.4
			c0,0,0,0.1,0,0.1c0.3,0.9,0.8,1.8,1.4,2.6c0.2,0.2,0.4,0.4,0.6,0.6c0.5,0.6,1.1,1,1.8,1.5c0.2,0.1,0.3,0.3,0.4,0.4
			c0.1,0.1,0.3,0.1,0.4,0.2c0.1,0.1,0.2,0.1,0.3,0.2s0.2,0,0.4,0.1c1,0.4,1.9,0.6,2.9,0.6h0h0c1,0,1.9-0.2,2.9-0.6
			c0.2-0.1,0.5-0.2,0.7-0.3c0.8-0.4,1.6-0.9,2.3-1.5c0,0,0.1-0.1,0.1-0.1l0.1-0.1c0,0,0,0,0,0l85.2-85.2c3.3-3.3,3.3-8.7,0-12.1
			c-3.3-3.3-8.7-3.3-12.1,0l-44.8,44.8l40.9-76.7L487.6,42.3l-79.2,374.2c-1.5,7.2-4.8,12.4-9.7,15c-5.2,2.8-12,2.6-19.8-0.4
			l-131.7-51.5c-4.4-1.7-9.3,0.5-11.1,4.8c-1.7,4.4,0.5,9.3,4.8,11.1l131.6,51.5c6,2.4,12,3.6,17.6,3.6c5.9,0,11.5-1.3,16.5-4
			c9.3-5,15.8-14.4,18.3-26.5l86.7-409.8c0.1-0.3,0-0.7,0.1-1c0-0.3,0.1-0.6,0.1-0.9C511.9,8.1,512,7.9,511.9,7.6z M206.6,370.1
			c-0.2,0.2-0.2,0.5-0.3,0.7c-0.2,0.2-0.4,0.4-0.5,0.6l-52.2,97.9V353.5L421.7,98.1L206.6,370.1z"/>
	</g>
</g>
</svg>
