<?xml version="1.0" encoding="utf-8"?>
<!-- Generator: Adobe Illustrator 22.0.1, SVG Export Plug-In . SVG Version: 6.00 Build 0)  -->
<svg version="1.1" id="Layer_1" xmlns="http://www.w3.org/2000/svg" xmlns:xlink="http://www.w3.org/1999/xlink" x="0px" y="0px"
	 viewBox="0 0 296.5 296.5" style="enable-background:new 0 0 296.5 296.5;" xml:space="preserve">
<g>
	<g>
		<path d="M284.9,237.2l-12.9,3.2l-19-41.7l-5.9-53.3l8.8,1.3c0.6,0.1,1.2,0.1,1.7,0.1c5.2,0,9.9-3.3,11.5-8.3
			c1.1-3.4,0.7-7.2-1.2-10.2c-1.9-3.1-5-5.1-8.6-5.6l-10.9-1.6V23.8c0-13.1-10.7-23.8-23.8-23.8h-200C11.5,0,0.8,10.7,0.8,23.8
			c0,11.5,8.2,21.1,19,23.3v248.1h190.3l0.4,1.3l9.2-2.6l-8.2-28.6l2.7-0.7l61.9-15.5l2.6-0.7l8.1,24.4l9-3L284.9,237.2z
			 M248.1,130.6l9.9,1.4c1.1,0.1,1.6,0.8,1.9,1.2s0.6,1.2,0.3,2.2c-0.4,1.2-1.6,1.9-2.9,1.8l-10-1.4L248.1,130.6z M224.6,9.5
			c7.9,0,14.3,6.4,14.3,14.3v85l-9.5-5.6V38.1h-4.8c-7.9,0-14.3-6.4-14.3-14.3S216.7,9.5,224.6,9.5z M175.9,125.7l-22.9-3.3
			l-2.1-4.2c-0.3-0.5-0.6-1.1-0.9-1.6l22.6,3.2l0,0l62.5,8.9l3.6,0.5l-0.9,5.2l-14.8-2.1L175.9,125.7z M185.3,142.1l-8.8,8.8
			l-14.8-11.1l-3.5-7l23.7,3.4L185.3,142.1z M132.7,105l-15.3,5.1c-0.7,0.1-1.5,0.2-2.2,0.3c0-0.3-0.1-0.6-0.1-0.9
			c0-10.2,3.6-19.5,9.5-26.9c4,5,7,11,8.5,17.5c0,0,0,0.1-0.1,0.1C132.6,101.9,132.6,103.4,132.7,105z M121.4,127.1l0.7,5.9
			c-2.7-4-4.6-8.5-5.8-13.2c0.7-0.1,1.3-0.2,2-0.3l3.2,3.2C121.3,124.2,121.2,125.6,121.4,127.1z M117.8,143.1
			c-7.5,5.9-16.8,9.3-26.6,9.3c-2.8,0-5.6-0.3-8.2-0.8c3.2-12.9,12.2-23.6,24.3-28.9C109.2,130.2,112.8,137.2,117.8,143.1z
			 M105.7,113c-15.8,6-27.6,19.3-31.8,35.7c-15-6.7-25.5-21.7-25.5-39.2c0-23.6,19.2-42.9,42.9-42.9c9.9,0,19.2,3.4,26.5,9.3
			c-7.6,9.1-12.2,20.8-12.2,33.6C105.5,110.7,105.7,111.9,105.7,113z M81.8,161c3.1,0.6,6.2,0.9,9.5,0.9c12.2,0,23.7-4.2,33-11.8
			l0.6,4.5l33.5,33.5c-8.1,10.5-20.4,16.6-33.8,16.6c-23.6,0-42.9-19.2-42.9-42.9C81.7,161.6,81.8,161.3,81.8,161z M131.4,75.9
			c7.3-5.8,16.5-9.3,26.5-9.3c11.4,0,22.1,4.6,29.9,12.4l-5.7-3.3L142,90.3c-0.6,0.2-1.2,0.6-1.7,0.9
			C138.2,85.6,135.2,80.4,131.4,75.9z M142.2,102.7c0.4-1.6,1.5-2.8,3.1-3.4l36-13.1l53.1,31l0.2,1.9l-23.7-3.4l-32.4-4.6l-3.9-6.8
			l-20.1,3.4l-12.1-1.7C142.1,104.9,141.9,103.8,142.2,102.7z M10.3,23.8c0-7.9,6.4-14.3,14.3-14.3h181.1c-3,4-4.9,8.9-4.9,14.3
			s1.9,10.3,4.9,14.3H24.6C16.7,38.1,10.3,31.7,10.3,23.8z M199.6,258.5l7.8,27.2h-178V47.6h190.5v50l-13.5-7.9
			C198.4,70.1,179.2,57,158,57c-12.7,0-24.3,4.5-33.3,12c-9.1-7.5-20.8-12-33.3-12C62.5,57,39,80.5,39,109.4
			c0,22.2,13.9,41.2,33.5,48.8c-0.1,1.2-0.2,2.4-0.2,3.6c0,28.9,23.5,52.4,52.4,52.4c15.9,0,30.7-7.2,40.6-19.4l3.9,3.9l32.3,27.7
			l9.7,29L199.6,258.5z M242.2,247.8l-21.8,5.5l-10.7-32.2l-34.1-29.2l-41.7-41.7l-3-24.2c-0.1-0.8,0-1.6,0.2-2.4l0.2-0.6
			c0.5-1.2,1.2-2.2,2.2-2.9c2.5-1.6,6.1-1.1,8.1,1c0.3,0.4,0.6,0.8,0.9,1.2l4.3,8.7l7.4,14.9l23.3,17.4l19.8-19.8l-3.3-5.8l43.5,6.2
			l6.3,56.5l18.9,42.2L242.2,247.8z"/>
	</g>
</g>
</svg>
