<?xml version="1.0" encoding="utf-8"?>
<!-- Generator: Adobe Illustrator 22.0.1, SVG Export Plug-In . SVG Version: 6.00 Build 0)  -->
<svg version="1.1" id="Layer_1" xmlns="http://www.w3.org/2000/svg" xmlns:xlink="http://www.w3.org/1999/xlink" x="0px" y="0px"
	 viewBox="0 0 64 64" style="enable-background:new 0 0 64 64;" xml:space="preserve">
<path d="M19.4,32.4c0-7,5.7-12.7,12.7-12.7s12.7,5.7,12.7,12.7s-5.7,12.7-12.7,12.7C25.1,45.1,19.4,39.4,19.4,32.4L19.4,32.4z
	 M45.2,7.6H19c-6.4,0-11.7,5.3-11.7,11.7v26.2c0,6.4,5.3,11.7,11.7,11.7h26.2c6.5,0,11.7-5.3,11.7-11.7V19.3
	C56.9,12.9,51.7,7.6,45.2,7.6L45.2,7.6z M19,10.5h26.2c4.9,0,8.8,3.9,8.8,8.8v26.2c0,4.9-3.9,8.8-8.8,8.8H19c-4.9,0-8.8-3.9-8.8-8.8
	V19.3C10.2,14.5,14.2,10.5,19,10.5L19,10.5z M47.8,14.2c-1.4,0-2.6,1.2-2.6,2.6s1.2,2.6,2.6,2.6c1.4,0,2.6-1.2,2.6-2.6
	C50.4,15.4,49.2,14.2,47.8,14.2L47.8,14.2z M48.1,32.4c0-8.8-7.2-16-16-16s-16,7.2-16,16c0,8.9,7.2,16,16,16S48.1,41.3,48.1,32.4
	L48.1,32.4z"/>
</svg>
