<?xml version="1.0" encoding="utf-8"?>
<!-- Generator: Adobe Illustrator 22.0.1, SVG Export Plug-In . SVG Version: 6.00 Build 0)  -->
<svg version="1.1" id="Layer_1" xmlns="http://www.w3.org/2000/svg" xmlns:xlink="http://www.w3.org/1999/xlink" x="0px" y="0px"
	 viewBox="0 0 64 64" style="enable-background:new 0 0 64 64;" xml:space="preserve">
<path d="M9.5,33v21.9h10.4V31.2V25H9.5V33z M53.9,34.2C53.2,28.6,50.6,25,43,25c-4.5,0-7.5,1.6-8.7,4h-0.1v-4h-8.3v5.7v24.1h8.7
	V40.1c0-3.9,0.8-7.6,5.5-7.6c4.8,0,5.2,4.4,5.2,7.9v14.5h8.9V38.5C54.2,36.9,54.1,35.5,53.9,34.2L53.9,34.2z M14.7,10.1
	c-2.9,0-5.2,2.3-5.2,5.2s2.3,5.2,5.2,5.2s5.2-2.3,5.2-5.2S17.6,10.1,14.7,10.1L14.7,10.1z"/>
</svg>
