<?xml version="1.0" encoding="utf-8"?>
<!-- Generator: Adobe Illustrator 22.0.1, SVG Export Plug-In . SVG Version: 6.00 Build 0)  -->
<svg version="1.1" id="Layer_1" xmlns="http://www.w3.org/2000/svg" xmlns:xlink="http://www.w3.org/1999/xlink" x="0px" y="0px"
	 viewBox="0 0 512 512" style="enable-background:new 0 0 512 512;" xml:space="preserve">
<g>
	<g>
		<path d="M256,0C158.8,0,80,78.8,80,176v160c0,97.2,78.8,176,176,176s176-78.8,176-176V176C432,78.8,353.2,0,256,0z M400,336
			c0,79.4-64.6,144-144,144s-144-64.6-144-144V176c0-79.4,64.6-144,144-144s144,64.6,144,144V336z M256,80c-26.5,0-48,21.5-48,48v64
			c0,26.5,21.5,48,48,48s48-21.5,48-48v-64C304,101.5,282.5,80,256,80z M272,192c0,8.8-7.2,16-16,16s-16-7.2-16-16v-64
			c0-8.8,7.2-16,16-16c8.8,0,16,7.2,16,16V192z"/>
	</g>
</g>
</svg>
