<?xml version="1.0" encoding="utf-8"?>
<!-- Generator: Adobe Illustrator 22.0.1, SVG Export Plug-In . SVG Version: 6.00 Build 0)  -->
<svg version="1.1" id="Capa_1" xmlns="http://www.w3.org/2000/svg" xmlns:xlink="http://www.w3.org/1999/xlink" x="0px" y="0px"
	 viewBox="0 0 512 512" style="enable-background:new 0 0 512 512;" xml:space="preserve">
<g>
	<g>
		<path d="M366.5,0h-99.8c-4.2,0-7.5,3.4-7.5,7.5s3.4,7.5,7.5,7.5h99.8c14,0,25.4,11.4,25.4,25.4v2.9h-265v-2.9
			c0-14,11.4-25.4,25.4-25.4h60.3c4.2,0,7.5-3.4,7.5-7.5S216.8,0,212.6,0h-60.3c-22.3,0-40.5,18.2-40.5,40.5V51v38.6
			c-3.8,0.3-6.9,3.6-6.9,7.5v17c0,3.9,3,7.2,6.9,7.5v11.1c-3.8,0.3-6.9,3.6-6.9,7.5v17c0,3.9,3,7.2,6.9,7.5v267.7v39.1
			c0,22.3,18.2,40.5,40.5,40.5h214.2c22.3,0,40.5-18.2,40.5-40.5v-39.1V51V40.5C407,18.2,388.9,0,366.5,0z M392,471.5
			c0,14-11.4,25.4-25.4,25.4H152.3c-14,0-25.4-11.4-25.4-25.4v-31.6h162.4c4.2,0,7.5-3.4,7.5-7.5s-3.4-7.5-7.5-7.5H126.9V58.5H392
			v366.4h-47.5c-4.2,0-7.5,3.4-7.5,7.5s3.4,7.5,7.5,7.5H392V471.5L392,471.5z"/>
	</g>
</g>
<g>
	<g>
		<path d="M259.4,445.3c-12.8,0-23.2,10.4-23.2,23.2s10.4,23.2,23.2,23.2c12.8,0,23.2-10.4,23.2-23.2S272.2,445.3,259.4,445.3z
			 M259.4,476.6c-4.5,0-8.1-3.6-8.1-8.1s3.6-8.1,8.1-8.1s8.1,3.6,8.1,8.1C267.6,473,263.9,476.6,259.4,476.6z"/>
	</g>
</g>
</svg>
