<?xml version="1.0" encoding="utf-8"?>
<!-- Generator: Adobe Illustrator 19.0.0, SVG Export Plug-In . SVG Version: 6.00 Build 0)  -->
<svg version="1.1" id="Capa_1" xmlns="http://www.w3.org/2000/svg" xmlns:xlink="http://www.w3.org/1999/xlink" x="0px" y="0px"
	 viewBox="-49 141 512 512" style="enable-background:new -49 141 512 512;" xml:space="preserve">
<style type="text/css">
	.st0{fill:#C6281C;}
</style>
<path class="st0" d="M207,141C65.6,141-49,255.6-49,397S65.6,653,207,653s256-114.6,256-256S348.4,141,207,141z M295.5,410.6
	l-128,80c-2.6,1.6-5.5,2.4-8.5,2.4c-2.7,0-5.3-0.7-7.8-2c-5.1-2.8-8.2-8.2-8.2-14V317c0-5.8,3.2-11.2,8.2-14
	c5.1-2.8,11.3-2.7,16.2,0.4l128,80c4.7,2.9,7.5,8.1,7.5,13.6S300.2,407.6,295.5,410.6z"/>
</svg>
