<?xml version="1.0" encoding="utf-8"?>
<!-- Generator: Adobe Illustrator 19.0.0, SVG Export Plug-In . SVG Version: 6.00 Build 0)  -->
<svg version="1.1" id="Layer_1" xmlns="http://www.w3.org/2000/svg" xmlns:xlink="http://www.w3.org/1999/xlink" x="0px" y="0px"
	 viewBox="-157 248.5 296.5 296.5" style="enable-background:new -157 248.5 296.5 296.5;" xml:space="preserve">
<style type="text/css">
	.st0{fill:#EAE9E9;}
</style>
<g>
	<path class="st0" d="M82,396.5l-50.9-50.9c-3.1-3.1-3.1-8.2,0-11.3c3.1-3.1,8.2-3.1,11.3,0L99,390.9c3.1,3.1,3.1,8.2,0,11.3
		l-56.6,56.6c-1.6,1.6-3.6,2.3-5.7,2.3c-2.1,0-4.1-0.8-5.7-2.3c-3.1-3.1-3.1-8.2,0-11.3L82,396.5z"/>
	<path class="st0" d="M76.3,404.4h-188.1c-4.3,0-7.8-3.5-7.8-7.8v-0.2c0-4.3,3.5-7.8,7.8-7.8H76.3c4.3,0,7.8,3.5,7.8,7.8v0.2
		C84.2,400.9,80.6,404.4,76.3,404.4z"/>
</g>
</svg>
