<?xml version="1.0" encoding="utf-8"?>
<!-- Generator: Adobe Illustrator 22.0.1, SVG Export Plug-In . SVG Version: 6.00 Build 0)  -->
<svg version="1.1" id="Layer_1" xmlns="http://www.w3.org/2000/svg" xmlns:xlink="http://www.w3.org/1999/xlink" x="0px" y="0px"
	 viewBox="0 0 64 64" style="enable-background:new 0 0 64 64;" xml:space="preserve">
<path d="M57.1,17c-1.8,0.8-3.8,1.3-5.9,1.6c2.2-1.3,3.8-3.3,4.6-5.7c-2,1.2-4.2,2-6.6,2.5c-1.9-2-4.6-3.2-7.6-3.2
	c-5.7,0-10.4,4.6-10.4,10.2c0,0.8,0.1,1.6,0.3,2.3c-8.6-0.4-16.3-4.5-21.4-10.7c-0.9,1.5-1.4,3.3-1.4,5.1c0,3.6,1.9,6.7,4.6,8.5
	c-1.7,0-3.3-0.5-4.7-1.3c0,0.1,0,0.1,0,0.1c0,1.3,0.2,2.5,0.7,3.7c1.3,3.2,4.1,5.6,7.6,6.3C16,36.8,15.1,37,14.2,37
	c-0.7,0-1.3-0.1-1.9-0.2c1.3,4.1,5.2,7,9.7,7.1c-3.6,2.7-8,4.4-12.9,4.4c-0.9,0-1.6-0.1-2.5-0.1c4.6,2.9,10.1,4.6,15.9,4.6
	c16.2,0,26.2-11.2,28.8-22.9c0.5-2.1,0.7-4.1,0.7-6.2c0-0.4,0-0.9,0-1.3C54,20.9,55.8,19.1,57.1,17L57.1,17z"/>
</svg>
